<?xml version="1.0" encoding="UTF-8" standalone="no"?>
<!-- Created with Inkscape (http://www.inkscape.org/) -->

<svg
   width="3840"
   height="2160"
   viewBox="0 0 3840 2160"
   version="1.1"
   id="svg1"
   inkscape:version="1.4 (86a8ad7, 2024-10-11)"
   sodipodi:docname="CERNUS logo 2.svg"
   xml:space="preserve"
   inkscape:export-filename="CERNUS logo 2.jpg"
   inkscape:export-xdpi="96"
   inkscape:export-ydpi="96"
   xmlns:inkscape="http://www.inkscape.org/namespaces/inkscape"
   xmlns:sodipodi="http://sodipodi.sourceforge.net/DTD/sodipodi-0.dtd"
   xmlns:xlink="http://www.w3.org/1999/xlink"
   xmlns="http://www.w3.org/2000/svg"
   xmlns:svg="http://www.w3.org/2000/svg"><sodipodi:namedview
     id="namedview1"
     pagecolor="#022c3c"
     bordercolor="#000000"
     borderopacity="0.25"
     inkscape:showpageshadow="true"
     inkscape:pageopacity="0.0"
     inkscape:pagecheckerboard="false"
     inkscape:deskcolor="#d1d1d1"
     inkscape:document-units="px"
     showgrid="true"
     inkscape:clip-to-page="true"
     inkscape:zoom="0.26418295"
     inkscape:cx="1822.6006"
     inkscape:cy="846.00463"
     inkscape:window-width="1920"
     inkscape:window-height="1009"
     inkscape:window-x="-8"
     inkscape:window-y="-8"
     inkscape:window-maximized="1"
     inkscape:current-layer="layer4" /><defs
     id="defs1"><linearGradient
       id="linearGradient42"><stop
         style="stop-color:#ffffff;stop-opacity:1;"
         offset="0"
         id="stop44" /><stop
         style="stop-color:#4d4d4d;stop-opacity:1;"
         offset="1"
         id="stop45" /></linearGradient><inkscape:path-effect
       effect="bend_path"
       id="path-effect37"
       is_visible="true"
       lpeversion="1"
       bendpath="m 1989.2718,-152.64962 c 489.9864,-27.91396 1028.2111,71.704772 1261.5578,196.246656"
       prop_scale="1"
       scale_y_rel="false"
       vertical="false"
       hide_knot="false"
       bendpath-nodetypes="cc" /><inkscape:path-effect
       effect="bend_path"
       id="path-effect36"
       is_visible="true"
       lpeversion="1"
       bendpath="m 1815.756,-382.99416 c 676.1763,-311.97768 1521.0636,27.63021 1521.0636,27.63021"
       prop_scale="1"
       scale_y_rel="false"
       vertical="false"
       hide_knot="false"
       bendpath-nodetypes="cc" /><inkscape:path-effect
       effect="bend_path"
       id="path-effect35"
       is_visible="true"
       lpeversion="1"
       bendpath="m 173.17641,801.08202 c 390.85014,-160.60368 649.18862,13.9166 649.18862,13.9166"
       prop_scale="0.945"
       scale_y_rel="false"
       vertical="false"
       hide_knot="false"
       bendpath-nodetypes="cc" /><inkscape:path-effect
       effect="powerstroke"
       message=""
       id="path-effect2"
       is_visible="true"
       lpeversion="1.3"
       scale_width="1"
       interpolator_type="CentripetalCatmullRom"
       interpolator_beta="0.2"
       start_linecap_type="zerowidth"
       end_linecap_type="zerowidth"
       offset_points="0.2119027,-12.451515 | 0.45424953,-28.983981 | 0.71118156,-44.183582"
       linejoin_type="round"
       miter_limit="4"
       not_jump="false"
       sort_points="true" /><rect
       x="605.6409"
       y="374.74031"
       width="2808.6597"
       height="1249.1344"
       id="rect40" /><rect
       x="1048.5158"
       y="662.41974"
       width="492.08323"
       height="565.89572"
       id="rect39" /><linearGradient
       inkscape:collect="always"
       xlink:href="#linearGradient42"
       id="linearGradient43"
       x1="2453.0095"
       y1="1264.2915"
       x2="3222.5371"
       y2="1708.5786"
       gradientUnits="userSpaceOnUse" /></defs><g
     inkscape:groupmode="layer"
     id="layer4"
     inkscape:label="Foreground"
     style="stroke:#eeeeee;stroke-opacity:1"
     transform="translate(26.765799,90.043213)"><rect
       style="stroke:#022c3c;stroke-opacity:1;fill:#022c3c;stroke-width:3.5;stroke-linejoin:bevel"
       id="rect1"
       width="3840.0002"
       height="2160.0002"
       x="-26.765799"
       y="-90.043213" /><g
       inkscape:groupmode="layer"
       id="layer3"
       inkscape:label="Background" /><g
       id="g33"
       transform="matrix(2.3711703,0,0,2.3711703,-4182.1396,-2528.4017)"
       inkscape:label="g33"><circle
         style="display:inline;fill:url(#linearGradient43);stroke:#022c3c;stroke-width:12.9143;stroke-dasharray:none;stroke-opacity:1"
         id="path3"
         cx="2837.7734"
         cy="1486.4351"
         r="437.83035" /><path
         style="fill:none;fill-opacity:0;stroke:#022c3c;stroke-width:11.5;stroke-dasharray:none;stroke-opacity:1"
         d="m 2659.1822,1847.8007 360.6753,-759.5375"
         id="path12" /><path
         style="fill:none;fill-opacity:0;stroke:#022c3c;stroke-width:11.5;stroke-dasharray:none;stroke-opacity:1"
         d="m 3100.7424,1136.374 c 79.0346,263.0995 -337.1735,691.3524 -441.5602,711.4267"
         id="path13" /><path
         style="fill:none;fill-opacity:0;stroke:#022c3c;stroke-width:11.5;stroke-dasharray:none;stroke-opacity:1"
         d="m 2924.0977,1057.1991 c -211.3839,77.5207 -326.4768,656.7727 -264.9155,790.6016"
         id="path14" /><path
         style="fill:none;fill-opacity:0;stroke:#022c3c;stroke-width:11.5;stroke-dasharray:none;stroke-opacity:1"
         d="m 2799.7026,1042.1476 c -240.7642,106.7279 -345.2787,529.9654 -140.5204,805.6531"
         id="path15" /><path
         style="fill:none;fill-opacity:0;stroke:#022c3c;stroke-width:11.5;stroke-dasharray:none;stroke-opacity:1"
         d="m 3188.9639,1224.9763 c 86.6399,261.4588 -196.5475,593.3821 -529.7817,622.8244"
         id="path16" /><path
         style="fill:none;fill-opacity:0;stroke:#022c3c;stroke-width:11.5;stroke-dasharray:none;stroke-opacity:1"
         d="m 2610.4835,1112.223 c -232.3422,165.4661 -205.5764,521.4514 48.6987,735.5777"
         id="path17" /><path
         style="fill:none;fill-opacity:0;stroke:#022c3c;stroke-width:11.5;stroke-dasharray:none;stroke-opacity:1"
         d="m 3268.287,1406.7261 c 34.2772,256.371 -314.0891,524.0486 -609.1048,441.0746"
         id="path18"
         sodipodi:nodetypes="cc" /><path
         style="fill:none;fill-opacity:0;stroke:#022c3c;stroke-width:11.5;stroke-dasharray:none;stroke-opacity:1"
         d="m 2659.1822,1847.8007 -22.352,36.1338"
         id="path19" /><path
         style="fill:none;fill-opacity:0;stroke:#022c3c;stroke-width:11.5;stroke-dasharray:none;stroke-opacity:1"
         d="m 3131.8874,1798.6389 c -181.9063,139.1821 -348.4618,94.3209 -472.7052,49.1618"
         id="path20"
         sodipodi:nodetypes="cc" /><path
         style="fill:none;fill-opacity:0;stroke:#022c3c;stroke-width:11.5;stroke-dasharray:none;stroke-opacity:1"
         d="M 3196.9499,1736.8101 C 3148.9963,1468.032 2595.8505,1228.676 2416.7357,1366.3409"
         id="path21" /><path
         style="fill:none;fill-opacity:0;stroke:#022c3c;stroke-width:11.5;stroke-dasharray:none;stroke-opacity:1"
         d="m 2454.9513,1273.9671 c 99.2466,-147.5047 766.5129,116.2598 788.4945,377.1656"
         id="path22" /><path
         style="fill:none;fill-opacity:0;stroke:#022c3c;stroke-width:11.5;stroke-dasharray:none;stroke-opacity:1"
         d="m 2399.9431,1486.4351 c 81.0779,-211.8003 784.0752,122.3228 722.8923,323.0663"
         id="path23"
         sodipodi:nodetypes="cc" /><path
         style="fill:none;fill-opacity:0;stroke:#022c3c;stroke-width:11.5;stroke-dasharray:none;stroke-opacity:1"
         d="m 2527.2141,1177.8118 c 154.9936,-100.6379 701.3329,151.8453 745.9473,360.5362"
         id="path24"
         sodipodi:nodetypes="cc" /><path
         style="fill:none;fill-opacity:0;stroke:#022c3c;stroke-width:11.5;stroke-dasharray:none;stroke-opacity:1"
         d="m 2413.2317,1564.0832 c 131.1669,-157.947 705.9447,150.2773 620.2941,313.7494"
         id="path25"
         sodipodi:nodetypes="cc" /><path
         style="fill:none;fill-opacity:0;stroke:#022c3c;stroke-width:11.5;stroke-dasharray:none;stroke-opacity:1"
         d="m 2445.5099,1661.7784 c 212.1155,-167.6949 602.0746,182.5505 489.0827,249.465"
         id="path26"
         sodipodi:nodetypes="cc" /><path
         style="fill:none;fill-opacity:0;stroke:#022c3c;stroke-width:11.5;stroke-dasharray:none;stroke-opacity:1"
         d="m 2502.6022,1761.861 c -14.7212,-151.1103 441.4949,40.8023 335.1712,162.4044"
         id="path27" /><path
         style="fill:none;fill-opacity:0;stroke:#022c3c;stroke-width:11.5;stroke-dasharray:none;stroke-opacity:1"
         d="m 2610.4835,1112.223 c 313.6142,-55.0239 607.361,213.8878 657.8035,294.5031"
         id="path28"
         sodipodi:nodetypes="cc" /><path
         style="fill:none;fill-opacity:0;stroke:#022c3c;stroke-width:11.5;stroke-dasharray:none;stroke-opacity:1"
         d="M 3231.4237,1294.7716 C 3067.3606,1107.5394 2781.5849,1042.4519 2722.2354,1064.1243"
         id="path29" /><path
         style="fill:none;fill-opacity:0;stroke:#022c3c;stroke-width:11.5;stroke-dasharray:none;stroke-opacity:1"
         d="m 2413.2317,1564.0832 c 21.1177,136.459 208.0011,286.7424 245.9505,283.7175"
         id="path30" /><path
         style="fill:none;fill-opacity:0;stroke:#022c3c;stroke-width:11.5;stroke-dasharray:none;stroke-opacity:1"
         d="m 2837.7734,1924.2654 c -75.2788,-5.6166 -178.5912,-76.4647 -178.5912,-76.4647"
         id="path31"
         sodipodi:nodetypes="cc" /><path
         style="fill:none;fill-opacity:0;stroke:#022c3c;stroke-width:13.2068;stroke-dasharray:none;stroke-opacity:1"
         d="m 2737.9578,1917.1079 c -46.3842,-22.5293 -78.11,-68.8231 -78.11,-68.8231"
         id="path32" /><path
         style="fill:none;fill-opacity:0;stroke:#022c3c;stroke-width:13.2758;stroke-dasharray:none;stroke-opacity:1"
         d="m 2573.184,1841.8462 c 36.6334,22.3082 85.6462,3.6376 85.6462,3.6376"
         id="path33" /><path
         sodipodi:type="star"
         style="fill:none;fill-opacity:1;stroke:#eeeeee;stroke-width:3.5;stroke-linejoin:bevel;stroke-dasharray:none;stroke-opacity:1"
         id="path34"
         inkscape:flatsided="false"
         sodipodi:sides="4"
         sodipodi:cx="609.15717"
         sodipodi:cy="1217.1014"
         sodipodi:r1="106.04969"
         sodipodi:r2="10.604969"
         sodipodi:arg1="1.5707963"
         sodipodi:arg2="2.3561945"
         inkscape:rounded="-3.469447e-18"
         inkscape:randomized="0"
         d="m 609.15717,1323.1511 -7.49885,-98.5508 -98.55084,-7.4989 98.55084,-7.4988 7.49884,-98.5508 7.49885,98.5508 98.55085,7.4988 -98.55085,7.4989 z"
         transform="translate(1715.4899,103.3367)" /><path
         style="fill:#ffffff;fill-rule:nonzero;stroke:none;stroke-width:11.5;stroke-dasharray:none;stroke-opacity:1;fill-opacity:1"
         d="m 449.32681,1328.6956 c -13.26688,-2.1197 -33.87863,-4.925 -60.01303,-6.2221 -26.43288,-1.3118 -55.59224,-0.9398 -86.60611,1.9833 -35.51164,3.3471 -68.23185,9.5488 -96.91573,17.3162 -13.27539,3.5949 -26.21943,7.6736 -38.69897,12.208 -40.23885,14.6209 -74.57468,33.6007 -99.067639,55.0865 -11.992022,10.5196 -21.118186,21.202 -27.433872,31.6697 -1.679067,2.783 -3.146296,5.5287 -4.412799,8.2317 -3.470731,7.4073 -5.104471,14.5257 -5.341345,21.1898 -0.317082,8.9207 1.844403,17.3557 5.814688,25.8711 3.940544,8.4515 10.291465,18.2857 19.909325,29.5738 9.605564,11.2736 22.707731,24.2771 40.589502,39.21 6.69035,5.5871 14.03526,11.4322 22.09733,17.546 12.40049,9.4039 27.16926,20.0672 45.13364,31.8603 54.42736,35.7299 128.76501,75.5525 233.03527,117.8117 66.58396,26.9855 137.11558,51.5977 207.53391,73.5874 69.46692,21.6926 133.27591,39.0757 178.36932,50.4392 -46.19835,-7.834 -110.74365,-18.6576 -182.86608,-32.5639 -72.56872,-13.9923 -146.59376,-29.9127 -217.29922,-48.1539 -109.56938,-28.2678 -195.64982,-58.1234 -259.38356,-89.4706 -21.47053,-10.5601 -39.789988,-20.9892 -55.310967,-31.1958 -10.097077,-6.6398 -19.445871,-13.4263 -28.066674,-20.3394 -22.980097,-18.4277 -40.95823376,-37.8955 -54.028394,-57.9845 -13.287735,-20.4235 -21.486658,-41.4801 -24.525012,-62.4134 -3.085635,-21.2591 -0.694078,-41.2511 5.756722,-59.4483 4.700036,-13.2584 11.434606,-25.2617 19.394876,-36.1945 2.920003,-4.0105 6.0504138,-7.8675 9.3621619,-11.575 12.3258692,-13.799 27.3194551,-25.7031 43.8392251,-35.9324 33.40736,-20.6865 74.843202,-35.6337 118.535452,-45.5098 13.73544,-3.1047 27.76808,-5.7258 41.96315,-7.8789 30.69984,-4.6564 64.88361,-7.507 101.3864,-7.3123 31.87245,0.17 61.34518,2.6415 87.8112,6.5294 26.13551,3.8394 46.4658,8.6452 59.43723,12.0807 z"
         id="path2"
         sodipodi:nodetypes="cc"
         inkscape:path-effect="#path-effect2"
         inkscape:original-d="M 449.32681,1328.6956 C 68.215701,1247.9947 -481.1855,1589.9502 783.3203,1856.0582"
         transform="translate(1875.8619,-8.257469)" /></g></g></svg>
